#!OML:ASF H:\LiuWeirdWalks\Patient Classification 1\Patient 1\Session 1\male.ASF
:FULLY-SPECIFIED
:DEGREES
194
root -0.461545 19.9367 -17.4785 8.23878 12.3336 -4.46278
lowerback 8.71838 2.56582 3.76417
upperback 0.514465 3.76252 -0.438884
thorax -4.07667 1.79197 -3.01521
lowerneck -22.626 -2.8011 2.03995
upperneck 16.1269 -4.77909 1.38661
head 8.73647 -1.95138 -0.514684
rclavicle 3.52843e-014 -1.86858e-014
rhumerus -51.2797 33.023 -94.7448
rradius 46.0379
rwrist -3.65706
rhand 26.5074 -0.0501279
rfingers 7.12502
rthumb 50.5414 -20.9839
lclavicle 3.52843e-014 -1.86858e-014
lhumerus -47.2403 -19.1132 82.3897
lradius 48.6289
lwrist 10.068
lhand 6.75685 4.6998
lfingers 7.12502
lthumb 32.0442 31.8969
rfemur -24.4629 -10.6101 25.3896
rtibia 42.5375
rfoot -2.59203 -22.0309
rtoes -1.3053
lfemur -15.0826 -6.66085 -12.4338
ltibia 35.8037
lfoot 15.3307 3.33793
ltoes -20.8442
195
root -0.450624 19.97 -17.3107 7.96181 12.0748 -4.31797
lowerback 9.09656 2.64547 3.60506
upperback 0.66866 3.85876 -0.551514
thorax -4.1222 1.84239 -3.07085
lowerneck -22.5426 -2.80603 2.11116
upperneck 16.0185 -4.82006 1.46929
head 8.6858 -1.95984 -0.501003
rclavicle 3.56818e-014 2.78299e-015
rhumerus -51.8978 35.4615 -94.3488
rradius 48.5373
rwrist -3.74239
rhand 33.2173 0.266997
rfingers 7.12502
rthumb 56.5739 -16.6686
lclavicle 3.56818e-014 2.78299e-015
lhumerus -48.0396 -19.7208 82.0292
lradius 50.3448
lwrist 9.98619
lhand 9.49185 4.73046
lfingers 7.12502
lthumb 34.6442 31.3689
rfemur -25.2159 -10.3499 25.1804
rtibia 41.0766
rfoot -3.06926 -21.4609
rtoes -1.73712
lfemur -14.0749 -7.18544 -12.6593
ltibia 35.9912
lfoot 14.11 2.10917
ltoes -20.8945
196
root -0.438494 19.9948 -17.1403 7.79257 11.7295 -3.99697
lowerback 9.37763 2.73502 3.25087
upperback 0.791843 3.94123 -0.716743
thorax -4.15609 1.8889 -3.0667
lowerneck -22.578 -2.66785 2.38808
upperneck 16.0389 -4.70624 1.393
head 8.691 -1.89663 -0.556368
rclavicle -2.36554e-014 -1.74931e-014
rhumerus -52.1759 37.5889 -93.551
rradius 50.9568
rwrist -4.28873
rhand 39.7209 0.0107268
rfingers 7.12502
rthumb 62.1634 -11.2782
lclavicle -2.36554e-014 -1.74931e-014
lhumerus -48.8976 -20.1338 81.5678
lradius 52.126
lwrist 9.98986
lhand 12.1092 4.88786
lfingers 7.12502
lthumb 37.124 30.9202
rfemur -26.0879 -10.096 24.7936
rtibia 39.7059
rfoot -3.61217 -20.7744
rtoes -2.51821
lfemur -13.033 -7.73956 -13.1223
ltibia 35.8932
lfoot 12.8676 0.754097
ltoes -20.8741
197
root -0.425709 20.0102 -16.9674 7.73267 11.3028 -3.53226
lowerback 9.56831 2.83825 2.74514
upperback 0.867302 4.01938 -0.937598
thorax -4.19645 1.93469 -3.032
lowerneck -22.7506 -2.4089 2.84438
upperneck 16.2309 -4.46663 1.17403
head 8.77231 -1.77384 -0.675785
rclavicle 4.86029e-014 -7.95139e-016
rhumerus -52.026 39.304 -92.2936
rradius 53.2196
rwrist -5.22863
rhand 45.8655 -0.889589
rfingers 7.12502
rthumb 67.0404 -4.25527
lclavicle 4.86029e-014 -7.95139e-016
lhumerus -49.8075 -20.3943 81.0124
lradius 53.9287
lwrist 10.1062
lhand 14.5069 5.13508
lfingers 7.12502
lthumb 39.3873 30.543
rfemur -27.0952 -9.81661 24.2658
rtibia 38.4448
rfoot -4.26135 -19.9988
rtoes -3.63525
lfemur -11.9758 -8.32076 -13.7865
ltibia 35.5065
lfoot 11.6683 -0.57207
ltoes -20.8501
198
root -0.412234 20.0158 -16.7923 7.77585 10.8674 -2.93438
lowerback 9.66486 2.93081 2.11773
upperback 0.895891 4.06501 -1.20265
thorax -4.24135 1.96562 -2.96763
lowerneck -22.9022 -2.09338 3.37957
upperneck 16.4595 -4.1615 0.881614
head 8.86199 -1.62296 -0.824072
rclavicle 4.83047e-014 -1.86858e-014
rhumerus -51.3904 40.5197 -90.5049
rradius 55.308
rwrist -6.43813
rhand 51.5522 -2.43476
rfingers 7.12502
rthumb 70.9331 5.06339
lclavicle 4.83047e-014 -1.86858e-014
lhumerus -50.7584 -20.5236 80.3883
lradius 55.7087
lwrist 10.3611
lhand 16.6471 5.42454
lfingers 7.12502
lthumb 41.3998 30.2125
rfemur -28.2328 -9.56443 23.6088
rtibia 37.2995
rfoot -5.02504 -19.1439
rtoes -5.13451
lfemur -10.9289 -8.9574 -14.6307
ltibia 34.8397
lfoot 10.574 -1.79863
ltoes -20.7981
199
root -0.397667 20.0109 -16.6147 7.89566 10.4255 -2.24909
lowerback 9.67288 3.02091 1.41939
upperback 0.8927 4.09655 -1.49511
thorax -4.2745 1.99075 -2.88619
lowerneck -22.8862 -1.74831 3.98462
upperneck 16.5445 -3.81116 0.51503
head 8.87385 -1.45978 -0.998949
rclavicle -4.17448e-014 1.19271e-015
rhumerus -50.2398 41.1706 -88.1556
rradius 57.1944
rwrist -7.7778
rhand 56.5772 -4.5035
rfingers 7.12502
rthumb 73.5211 16.5077
lclavicle -4.17448e-014 1.19271e-015
lhumerus -51.7177 -20.5673 79.7216
lradius 57.4375
lwrist 10.7697
lhand 18.4881 5.71144
lfingers 7.12502
lthumb 43.1241 29.9134
rfemur -29.4753 -9.31948 22.8601
rtibia 36.2652
rfoot -5.79797 -18.3047
rtoes -6.77698
lfemur -9.87814 -9.60585 -15.6058
ltibia 33.9097
lfoot 9.58358 -2.86821
ltoes -20.7915
200
root -0.382312 19.9949 -16.4355 8.06666 10.0069 -1.51859
lowerback 9.63104 3.09708 0.704642
upperback 0.854014 4.10685 -1.80458
thorax -4.31842 2.00534 -2.80907
lowerneck -22.9428 -1.3824 4.59345
upperneck 16.743 -3.43735 0.133611
head 8.94148 -1.28354 -1.17904
rclavicle -2.93207e-014 -4.77083e-015
rhumerus -48.6526 41.2285 -85.325
rradius 58.9135
rwrist -9.1518
rhand 60.6368 -7.03108
rfingers 7.12502
rthumb 74.7272 27.6577
lclavicle -2.93207e-014 -4.77083e-015
lhumerus -52.6768 -20.5429 79.017
lradius 59.0903
lwrist 11.3373
lhand 20.0351 6.01539
lfingers 7.12502
lthumb 44.5678 29.6832
rfemur -30.7975 -9.07778 22.0583
rtibia 35.3326
rfoot -6.5581 -17.5651
rtoes -8.50502
lfemur -8.82427 -10.252 -16.6571
ltibia 32.7416
lfoot 8.68238 -3.74059
ltoes -20.8155
201
root -0.366014 19.9673 -16.2548 8.27348 9.6317 -0.770473
lowerback 9.54236 3.1571 -0.00460905
upperback 0.792296 4.09733 -2.1062
thorax -4.36159 2.01039 -2.72253
lowerneck -22.671 -1.11789 4.97415
upperneck 16.6421 -3.13948 -0.0613141
head 8.85801 -1.14561 -1.26174
rclavicle 3.83654e-014 -2.78299e-015
rhumerus -46.7276 40.723 -82.1068
rradius 60.4777
rwrist -10.4786
rhand 63.5045 -9.74213
rfingers 7.12502
rthumb 74.9796 35.5172
lclavicle 3.83654e-014 -2.78299e-015
lhumerus -53.6029 -20.4628 78.3035
lradius 60.6252
lwrist 12.0644
lhand 21.2828 6.25781
lfingers 7.12502
lthumb 45.7282 29.4647
rfemur -32.1721 -8.84138 21.2263
rtibia 34.4881
rfoot -7.26391 -16.9985
rtoes -10.153
lfemur -7.76423 -10.8634 -17.7484
ltibia 31.3694
lfoot 7.83399 -4.38803
ltoes -20.7962
202
root -0.348989 19.9274 -16.0732 8.48934 9.31032 -0.0374482
lowerback 9.43498 3.19947 -0.673455
upperback 0.714974 4.07061 -2.38844
thorax -4.40981 2.00668 -2.63599
lowerneck -22.0746 -0.988029 5.00804
upperneck 16.1607 -2.94707 0.0487099
head 8.59745 -1.05588 -1.19152
rclavicle 1.32192e-014 5.56597e-015
rhumerus -44.6179 39.6822 -78.6515
rradius 61.9318
rwrist -11.6735
rhand 65.0691 -12.2561
rfingers 7.12502
rthumb 74.8931 38.8105
lclavicle 1.32192e-014 5.56597e-015
lhumerus -54.4859 -20.3442 77.5869
lradius 62.0354
lwrist 12.9763
lhand 22.2491 6.51821
lfingers 7.12502
lthumb 46.6242 29.3482
rfemur -33.5649 -8.60242 20.3923
rtibia 33.7223
rfoot -7.95749 -16.7054
rtoes -11.6691
lfemur -6.68289 -11.4158 -18.8422
ltibia 29.8312
lfoot 7.00467 -4.77065
ltoes -20.7914
203
root -0.331875 19.8751 -15.8913 8.70249 9.04213 0.645368
lowerback 9.3222 3.22749 -1.27479
upperback 0.627657 4.03435 -2.63837
thorax -4.46316 1.99765 -2.55272
lowerneck -21.3817 -0.977395 4.7507
upperneck 15.5299 -2.86214 0.381839
head 8.27632 -1.01458 -1.01265
rclavicle -4.54223e-014 1.07344e-014
rhumerus -42.4181 38.191 -75.0962
rradius 63.2641
rwrist -12.7275
rhand 65.2563 -14.1704
rfingers 7.12502
rthumb 74.8722 37.5847
lclavicle -4.54223e-014 1.07344e-014
lhumerus -55.3006 -20.1966 76.8726
lradius 63.3079
lwrist 14.0791
lhand 22.931 6.83416
lfingers 7.12502
lthumb 47.2551 29.3872
rfemur -34.9539 -8.32101 19.5827
rtibia 33.0233
rfoot -8.68707 -16.7974
rtoes -13.1381
lfemur -5.58936 -11.8485 -19.8893
ltibia 28.1705
lfoot 6.18603 -4.87038
ltoes -20.7028
204
root -0.314796 19.8102 -15.71 8.9049 8.8578 1.2854
lowerback 9.21522 3.23075 -1.81737
upperback 0.539238 3.97376 -2.84842
thorax -4.52 1.97624 -2.4584
lowerneck -20.5268 -1.09517 4.20755
upperneck 14.705 -2.89146 0.906464
head 7.86957 -1.03028 -0.737983
rclavicle -3.47873e-015 1.63003e-014
rhumerus -40.2269 36.3204 -71.5557
rradius 64.4843
rwrist -13.631
rhand 64.1051 -15.2056
rfingers 7.12502
rthumb 74.9651 32.2902
lclavicle -3.47873e-015 1.63003e-014
lhumerus -56.0394 -20.0111 76.166
lradius 64.4317
lwrist 15.314
lhand 23.3862 7.22249
lfingers 7.12502
lthumb 47.6755 29.5853
rfemur -36.3204 -8.05111 18.7953
rtibia 32.3832
rfoot -9.43049 -17.2415
rtoes -14.3813
lfemur -4.48703 -12.1284 -20.8868
ltibia 26.4301
lfoot 5.36717 -4.68342
ltoes -20.6562
205
root -0.298942 19.7328 -15.53 9.09426 8.75559 1.86462
lowerback 9.12475 3.21275 -2.29234
upperback 0.456242 3.89398 -3.01635
thorax -4.57857 1.9448 -2.35656
lowerneck -19.8282 -1.27644 3.53721
upperneck 13.9846 -2.99436 1.47148
head 7.52958 -1.08138 -0.443967
rclavicle -6.76862e-014 -2.46493e-014
rhumerus -38.0834 34.1342 -68.1218
rradius 65.562
rwrist -14.4009
rhand 61.629 -15.2513
rfingers 7.12502
rthumb 74.874 23.0502
lclavicle -6.76862e-014 -2.46493e-014
lhumerus -56.6615 -19.8 75.4589
lradius 65.3744
lwrist 16.6532
lhand 23.6065 7.62626
lfingers 7.12502
lthumb 47.8788 29.8954
rfemur -37.6543 -7.76414 18.0461
rtibia 31.7935
rfoot -10.2682 -18.1274
rtoes -15.5653
lfemur -3.39439 -12.2026 -21.7991
ltibia 24.6508
lfoot 4.57417 -4.21637
ltoes -20.7011
206
root -0.284401 19.6426 -15.3515 9.25315 8.7485 2.3886
lowerback 9.06789 3.16561 -2.70338
upperback 0.382734 3.78313 -3.14183
thorax -4.64445 1.89742 -2.24403
lowerneck -19.2851 -1.46987 2.84824
upperneck 13.4807 -3.1205 1.99457
head 7.29037 -1.14317 -0.16836
rclavicle 6.08281e-014 -2.22639e-014
rhumerus -36.0226 31.7021 -64.8699
rradius 66.5012
rwrist -15.1407
rhand 57.9803 -14.6135
rfingers 7.12502
rthumb 74.0414 10.8793
lclavicle 6.08281e-014 -2.22639e-014
lhumerus -57.1696 -19.543 74.7504
lradius 66.1067
lwrist 18.0256
lhand 23.5882 7.96564
lfingers 7.12502
lthumb 47.8619 30.2426
rfemur -38.9264 -7.49682 17.3349
rtibia 31.2521
rfoot -11.1276 -19.3289
rtoes -16.3251
lfemur -2.30999 -12.0327 -22.6222
ltibia 22.871
lfoot 3.89763 -3.50494
ltoes -20.782
207
root -0.271315 19.5398 -15.1737 9.37099 8.83911 2.87124
lowerback 9.03519 3.0936 -3.07269
upperback 0.335247 3.64536 -3.22403
thorax -4.69608 1.83654 -2.10652
lowerneck -18.7215 -1.66932 2.26028
upperneck 12.9875 -3.25857 2.35715
head 7.04929 -1.22131 0.036205
rclavicle 3.95581e-014 -1.74931e-014
rhumerus -34.0661 29.0755 -61.8411
rradius 67.2795
rwrist -15.8269
rhand 53.2238 -13.338
rfingers 7.12502
rthumb 71.9038 -1.7896
lclavicle 3.95581e-014 -1.74931e-014
lhumerus -57.5421 -19.2449 74.0467
lradius 66.621
lwrist 19.4141
lhand 23.3799 8.19109
lfingers 7.12502
lthumb 47.6697 30.5565
rfemur -40.1151 -7.30688 16.6677
rtibia 30.76
rfoot -11.9933 -20.7471
rtoes -16.6235
lfemur -1.2299 -11.5791 -23.3635
ltibia 21.123
lfoot 3.41643 -2.62066
ltoes -20.8843
208
root -0.26025 19.4244 -14.9974 9.44499 9.03702 3.30764
lowerback 9.04328 2.98701 -3.39584
upperback 0.313695 3.467 -3.26588
thorax -4.74201 1.75514 -1.94855
lowerneck -18.5366 -1.7698 1.94659
upperneck 12.898 -3.31524 2.42585
head 6.99503 -1.26187 0.10462
rclavicle 8.54774e-015 1.31198e-014
rhumerus -32.213 26.3281 -59.0809
rradius 67.914
rwrist -16.5438
rhand 47.5862 -11.7416
rfingers 7.12502
rthumb 68.2979 -12.2464
lclavicle 8.54774e-015 1.31198e-014
lhumerus -57.7873 -18.8797 73.3278
lradius 66.9308
lwrist 20.796
lhand 23.0474 8.3368
lfingers 7.12502
lthumb 47.3627 30.8416
rfemur -41.2104 -7.2059 16.0574
rtibia 30.3199
rfoot -12.857 -22.2858
rtoes -16.3914
lfemur -0.174203 -10.8304 -24.0007
ltibia 19.4434
lfoot 3.21854 -1.6672
ltoes -20.8829
